HIERARCHY
ROOT Hips
{
	OFFSET 0.000000 0.000000 0.000000
	CHANNELS 6 Xposition Yposition Zposition Xrotation Yrotation Zrotation
	JOINT LeftUpLeg_virtual
	{
		OFFSET 0.000000 0.000000 0.000000
		CHANNELS 3 Xrotation Yrotation Zrotation
		JOINT LeftUpLeg
		{
			OFFSET 11.394100 -6.187798 -0.413800
			CHANNELS 3 Xrotation Yrotation Zrotation
			JOINT LeftLeg
			{
				OFFSET 0.430247 -32.302673 3.732800
				CHANNELS 3 Xrotation Yrotation Zrotation
				JOINT LeftFoot
				{
					OFFSET -0.430247 -48.264931 -6.423300
					CHANNELS 3 Xrotation Yrotation Zrotation
					JOINT LeftToeBase
					{
						OFFSET 4.230900 -16.068199 23.438400
						CHANNELS 3 Xrotation Yrotation Zrotation
						JOINT LeftToe_End
						{
							OFFSET 4.510700 0.695400 19.974600
							CHANNELS 3 Xrotation Yrotation Zrotation
							End Site
							{
								OFFSET 0 0 0
							}
						}
					}
				}
			}
		}
	}
	JOINT RightUpLeg_virtual
	{
		OFFSET 0.000000 0.000000 0.000000
		CHANNELS 3 Xrotation Yrotation Zrotation
		JOINT RightUpLeg
		{
			OFFSET -11.333700 -6.187798 -0.413800
			CHANNELS 3 Xrotation Yrotation Zrotation
			JOINT RightLeg
			{
				OFFSET -0.430392 -32.302628 3.733000
				CHANNELS 3 Xrotation Yrotation Zrotation
				JOINT RightFoot
				{
					OFFSET 0.430392 -48.264973 -6.423500
					CHANNELS 3 Xrotation Yrotation Zrotation
					JOINT RightToeBase
					{
						OFFSET -4.230900 -16.068199 23.438400
						CHANNELS 3 Xrotation Yrotation Zrotation
						JOINT RightToe_End
						{
							OFFSET -4.510700 0.695400 19.974600
							CHANNELS 3 Xrotation Yrotation Zrotation
							End Site
							{
								OFFSET 0 0 0
							}
						}
					}
				}
			}
		}
	}
	JOINT Spine_virtual
	{
		OFFSET 0.000000 0.000000 0.000000
		CHANNELS 3 Xrotation Yrotation Zrotation
		JOINT Spine
		{
			OFFSET -0.002400 12.777504 0.315300
			CHANNELS 3 Xrotation Yrotation Zrotation
			JOINT Spine1
			{
				OFFSET -0.002067 5.816869 0.032633
				CHANNELS 3 Xrotation Yrotation Zrotation
				JOINT Spine1_split
				{
					OFFSET -0.002067 5.816869 0.032633
					CHANNELS 3 Xrotation Yrotation Zrotation
					JOINT Spine2
					{
						OFFSET -0.002067 5.816869 0.032633
						CHANNELS 3 Xrotation Yrotation Zrotation
						JOINT Neck_virtual
						{
							OFFSET 0.000000 0.000000 0.000000
							CHANNELS 3 Xrotation Yrotation Zrotation
							JOINT Neck
							{
								OFFSET -0.003700 21.199493 -0.826900
								CHANNELS 3 Xrotation Yrotation Zrotation
								JOINT Head
								{
									OFFSET 0.000000 20.442200 4.834800
									CHANNELS 3 Xrotation Yrotation Zrotation
									JOINT HeadTop_End
									{
										OFFSET 0.000000 34.668396 4.968400
										CHANNELS 3 Xrotation Yrotation Zrotation
										End Site
										{
											OFFSET 0 0 0
										}
									}
								}
							}
						}
						JOINT LeftShoulder_virtual
						{
							OFFSET 0.000000 0.000000 0.000000
							CHANNELS 3 Xrotation Yrotation Zrotation
							JOINT LeftShoulder
							{
								OFFSET 3.288150 8.794197 -1.372250
								CHANNELS 3 Xrotation Yrotation Zrotation
								JOINT LeftShoulder_split
								{
									OFFSET 3.288150 8.794197 -1.372250
									CHANNELS 3 Xrotation Yrotation Zrotation
									JOINT LeftArm
									{
										OFFSET 11.953299 -2.279007 -0.146200
										CHANNELS 3 Xrotation Yrotation Zrotation
										JOINT LeftForeArm
										{
											OFFSET 18.448900 0.000000 0.000000
											CHANNELS 3 Xrotation Yrotation Zrotation
											JOINT LeftHand
											{
												OFFSET 29.527798 0.000000 0.000000
												CHANNELS 3 Xrotation Yrotation Zrotation
												End Site
												{
													OFFSET 0 0 0
												}
											}
										}
									}
								}
							}
						}
						JOINT RightShoulder_virtual
						{
							OFFSET 0.000000 0.000000 0.000000
							CHANNELS 3 Xrotation Yrotation Zrotation
							JOINT RightShoulder
							{
								OFFSET -3.249400 8.794197 -1.372250
								CHANNELS 3 Xrotation Yrotation Zrotation
								JOINT RightShoulder_split
								{
									OFFSET -3.249400 8.794197 -1.372250
									CHANNELS 3 Xrotation Yrotation Zrotation
									JOINT RightArm
									{
										OFFSET -11.953299 -2.279007 -0.146200
										CHANNELS 3 Xrotation Yrotation Zrotation
										JOINT RightForeArm
										{
											OFFSET -18.448900 0.000000 0.000000
											CHANNELS 3 Xrotation Yrotation Zrotation
											JOINT RightHand
											{
												OFFSET -29.527802 0.000000 0.000000
												CHANNELS 3 Xrotation Yrotation Zrotation
												End Site
												{
													OFFSET 0 0 0
												}
											}
										}
									}
								}
							}
						}
					}
				}
			}
		}
	}
}
MOTION
Frames: 5
Frame Time: 0.03333333
0.076611 113.647438 -3.667076 0.000000 0.000000 0.000000 -87.492503 -5.977163 -3.092095 2.624637 24.199350 14.692927 -4.611567 6.823591 5.773859 28.358124 28.484761 -27.107424 -8.286607 -0.179825 2.863587 0.000000 0.000000 0.000000 -90.085598 -2.145398 -0.425572 4.931699 -20.459231 -10.782373 -5.425606 -2.671056 -8.120706 45.607345 -28.757156 33.731576 -16.656402 1.337998 -2.706612 0.000000 0.000000 0.000000 -88.295863 -7.435328 -5.187591 1.864041 -1.488583 1.245647 -2.746869 -1.292058 0.506857 1.173480 2.541512 -0.265523 0.000000 0.000000 0.000000 -2.626199 -1.722846 0.330513 -11.475363 -2.232352 -1.286948 14.526720 0.003592 2.964593 0.000000 0.000000 0.000000 -0.587285 -1.654908 0.651639 0.720615 1.173331 -6.053957 -1.374712 0.998402 -2.551898 38.125040 -28.549511 -54.576152 -160.101164 -88.064067 -159.279738 0.000000 0.000000 0.000000 -0.390853 -1.162050 0.257473 0.600940 -2.347927 13.813119 2.383061 4.810945 -0.734844 28.005403 24.441736 47.936952 179.050868 78.926285 179.837214 0.000000 0.000000 0.000000 
-0.072206 113.790123 -3.203957 0.000000 0.000000 0.000000 -87.374191 -5.749320 -2.966118 2.249150 24.254931 14.885269 -4.637340 6.850719 5.711301 28.515277 28.190815 -27.353890 -8.234977 -0.173848 2.848788 0.000000 0.000000 0.000000 -89.642114 -1.958292 -0.372589 5.045773 -19.982649 -10.795399 -5.466718 -2.749670 -8.108452 46.065760 -28.798147 33.857808 -16.596371 1.326305 -2.637018 0.000000 0.000000 0.000000 -88.071150 -7.436985 -5.320979 1.642692 -1.579722 1.242608 -2.827485 -1.337563 0.418640 0.999043 2.177105 -0.378444 0.000000 0.000000 0.000000 -2.745075 -1.744534 0.256264 -11.501253 -2.123741 -1.287595 14.674858 -0.156495 2.794013 0.000000 0.000000 0.000000 -0.593687 -1.694861 0.575607 0.764717 0.614516 -5.775725 -0.886852 0.818423 -2.264495 37.981295 -28.761343 -54.584806 -149.457352 -88.279894 -148.551437 0.000000 0.000000 0.000000 -0.438637 -1.179633 0.169445 0.632581 -2.737178 13.757653 2.314177 4.730714 0.194474 26.957584 25.196430 49.127085 -179.525785 79.736721 178.332838 0.000000 0.000000 0.000000 
-0.105967 113.979309 -2.887360 0.000000 0.000000 0.000000 -87.121542 -5.831584 -3.031324 1.989432 24.050363 15.057845 -4.554881 6.908877 5.679560 28.586922 27.917655 -27.322160 -8.122009 -0.139687 2.765757 0.000000 0.000000 0.000000 -89.087257 -1.948530 -0.407495 4.790780 -19.662858 -10.780830 -5.512916 -2.825883 -8.091421 46.823733 -28.655864 34.149546 -16.885879 1.399783 -2.740974 0.000000 0.000000 0.000000 -87.724224 -7.524866 -5.451597 1.446437 -1.675813 1.292783 -2.957114 -1.395926 0.247434 0.759740 1.836163 -0.428758 0.000000 0.000000 0.000000 -2.812944 -1.806529 0.132422 -11.570967 -2.103843 -1.156271 14.736418 -0.455489 2.784498 0.000000 0.000000 0.000000 -0.709738 -1.732046 0.427817 0.838043 -0.278674 -5.229700 -0.669077 1.302127 -2.434084 38.601934 -29.369861 -53.656675 -146.429011 -88.504854 -145.499668 0.000000 0.000000 0.000000 -0.530541 -1.219119 0.028588 0.680296 -3.395354 13.657381 2.266534 4.518967 0.628382 23.815427 25.597457 52.385478 -178.556363 81.161266 177.264255 0.000000 0.000000 0.000000 
-0.034563 114.115936 -2.710331 0.000000 0.000000 0.000000 -86.793679 -6.222942 -3.262608 1.853098 23.556151 15.114129 -4.341304 6.949755 5.726693 28.521072 27.764608 -27.008665 -7.968405 -0.083255 2.610444 0.000000 0.000000 0.000000 -88.577759 -2.126684 -0.476029 4.153774 -19.548266 -10.789751 -5.558591 -2.915676 -8.098308 47.534346 -28.482357 34.407409 -17.265858 1.527797 -2.950993 0.000000 0.000000 0.000000 -87.338503 -7.699037 -5.528020 1.313327 -1.761195 1.349739 -3.100220 -1.432760 0.041517 0.475111 1.664484 -0.409073 0.000000 0.000000 0.000000 -2.813174 -1.872539 -0.011125 -11.622776 -2.152911 -0.993179 14.763147 -0.826797 2.855309 0.000000 0.000000 0.000000 -0.929667 -1.748181 0.249227 0.929901 -1.324424 -4.621417 -0.716460 2.293569 -3.036575 39.719606 -30.089592 -52.066761 -150.815112 -88.769332 -149.902613 0.000000 0.000000 0.000000 -0.671108 -1.252292 -0.122874 0.763947 -4.179128 13.589081 2.324726 4.307603 0.472087 18.971192 25.180865 57.073074 -177.999511 83.249269 176.617081 0.000000 0.000000 0.000000 
0.142301 114.169403 -2.606689 0.000000 0.000000 0.000000 -86.444855 -6.792976 -3.498271 1.844933 22.828830 14.978661 -4.047353 6.913647 5.856313 28.394553 27.696472 -26.549248 -7.876870 -0.015581 2.433591 0.000000 0.000000 0.000000 -88.149499 -2.465118 -0.513130 3.211866 -19.557065 -10.901994 -5.544790 -3.047004 -8.145759 47.810918 -28.545616 34.391522 -17.242848 1.652862 -3.163562 0.000000 0.000000 0.000000 -86.956211 -7.906699 -5.487919 1.277144 -1.837368 1.343086 -3.203578 -1.408179 -0.132477 0.317279 1.531977 -0.434907 0.000000 0.000000 0.000000 -2.753453 -1.914380 -0.126003 -11.567894 -2.218441 -0.933680 14.892080 -1.147064 2.877632 0.000000 0.000000 0.000000 -1.196283 -1.731235 0.102101 1.014541 -2.318637 -4.214970 -0.967453 3.310204 -3.608450 40.948241 -30.633822 -50.197840 -163.182358 -88.960523 -162.325210 0.000000 0.000000 0.000000 -0.834862 -1.268200 -0.233017 0.870976 -4.888502 13.660339 2.254017 4.398067 0.022602 13.321196 23.801669 62.087840 -178.204594 85.951264 176.754422 0.000000 0.000000 0.000000 
